<svg id="Layer_1" data-name="Layer 1" xmlns="http://www.w3.org/2000/svg" viewBox="0 0 46.4 41.28">
  <title>img</title>
  <g>
    <g>
      <line x1="5.71" y1="38.02" x2="36.62" y2="38.02" style="fill: none;stroke: #0c0c0c;stroke-linecap: round;stroke-linejoin: round"/>
      <line x1="38.63" y1="38.02" x2="40.5" y2="38.02" style="fill: none;stroke: #0c0c0c;stroke-linecap: round;stroke-linejoin: round;stroke-dasharray: 3,2,3"/>
    </g>
    <path d="M20.36,13.71s-5.2-3.64-6.09-3.13-3.33,3.91,0,4.61,4.45,0,4.45,0l5.16-.61,4.64.73s3.25-.15,3.39-2.09-1.81-3.51-3.09-2.58S24,13.71,24,13.71Z" style="fill: #fff"/>
    <path d="M9.93,21.52h25a0,0,0,0,1,0,0V36.68a3,3,0,0,1-3,3h-19a3,3,0,0,1-3-3V21.52A0,0,0,0,1,9.93,21.52Z" style="fill: #fff"/>
    <rect x="6.93" y="15.88" width="29.91" height="1.74" style="fill: #ce8c2c"/>
    <path d="M26.53,17.34h10.6V20.1a1.42,1.42,0,0,1-1.42,1.42H8.58A1.42,1.42,0,0,1,7.16,20.1V17.34H18.28" style="fill: #fcaf32"/>
    <path d="M34.42,34.6H25.85A13.08,13.08,0,0,1,12.77,21.52H34.42Z" style="fill: #ce8c2c"/>
    <path d="M34.91,34.6H27.59A13.08,13.08,0,0,1,14.51,21.52h20.4Z" style="fill: #fcaf32"/>
    <rect x="19" y="21.52" width="6.96" height="17.74" style="fill: #fff"/>
    <path d="M9.93,21.52h25a0,0,0,0,1,0,0V36.68a3,3,0,0,1-3,3h-19a3,3,0,0,1-3-3V21.52A0,0,0,0,1,9.93,21.52Z" style="fill: none;stroke: #0c0c0c;stroke-linecap: round;stroke-linejoin: round"/>
    <path d="M26.53,15.31h9.18a1.42,1.42,0,0,1,1.42,1.42V20.1a1.42,1.42,0,0,1-1.42,1.42H8.58A1.42,1.42,0,0,1,7.16,20.1V16.73a1.42,1.42,0,0,1,1.42-1.42h9.7" style="fill: none;stroke: #0c0c0c;stroke-linecap: round;stroke-linejoin: round"/>
    <path d="M26.26,21V15.79A2.16,2.16,0,0,0,24,13.71H20.82a2.16,2.16,0,0,0-2.23,2.08V21" style="fill: #fff"/>
    <path d="M29.74,15.31a2.43,2.43,0,1,0,0-4.86,2.41,2.41,0,0,0-1.34.41,27.28,27.28,0,0,1-3.53,2.59" style="fill: none;stroke: #0c0c0c;stroke-linecap: round;stroke-linejoin: round"/>
    <path d="M15,15.31a2.43,2.43,0,0,1,0-4.86,2.36,2.36,0,0,1,1.34.41,25,25,0,0,0,4,2.85" style="fill: none;stroke: #0c0c0c;stroke-linecap: round;stroke-linejoin: round"/>
    <line x1="19" y1="39.25" x2="19" y2="22.18" style="fill: none;stroke: #0c0c0c;stroke-linecap: round;stroke-linejoin: round"/>
    <line x1="25.96" y1="22.18" x2="25.96" y2="39.25" style="fill: none;stroke: #0c0c0c;stroke-linecap: round;stroke-linejoin: round"/>
    <path d="M26.26,21.52V15.94A2.23,2.23,0,0,0,24,13.71H20.82a2.23,2.23,0,0,0-2.23,2.23v5.58" style="fill: none;stroke: #0c0c0c;stroke-linecap: round;stroke-linejoin: round"/>
    <line x1="32.17" y1="24.25" x2="32.17" y2="29.67" style="fill: none;stroke: #fff;stroke-linecap: round;stroke-linejoin: round"/>
    <line x1="32.17" y1="32.34" x2="32.17" y2="32.92" style="fill: none;stroke: #fff;stroke-linecap: round;stroke-linejoin: round"/>
    <circle cx="39.25" cy="7.13" r="0.99" style="fill: #0c0c0c"/>
    <circle cx="43.67" cy="14.23" r="1.26" style="fill: #0c0c0c"/>
    <path d="M36.13,3.55a1.88,1.88,0,0,1-1.89-1.89V.92h-.5v.74a1.88,1.88,0,0,1-1.89,1.89h-.63V4h.63a1.88,1.88,0,0,1,1.89,1.89v.74h.5V5.88A1.88,1.88,0,0,1,36.13,4h.78V3.55Z" style="fill: #fff"/>
    <circle cx="3.76" cy="28.19" r="1.26" style="fill: #0c0c0c"/>
    <path d="M11.51,16.14a2.69,2.69,0,0,1-2.69-2.69V12.39h-.7v1.06a2.69,2.69,0,0,1-2.7,2.69H4.53v.62h.89a2.7,2.7,0,0,1,2.7,2.69v1.06h.7V19.45a2.7,2.7,0,0,1,2.69-2.69h1.12v-.62Z" style="fill: #fff"/>
  </g>
</svg>
